<svg width="146" height="25" viewBox="0 0 146 25" fill="none" xmlns="http://www.w3.org/2000/svg">
<g filter="url(#filter0_d_4_806)">
<path d="M14.166 3.30859L14.1309 4.9873L10.0264 5.14551L10.1494 16.2373L8.20703 16.2725V5.21582L4.0498 5.38281L4.01465 3.52832L14.166 3.30859ZM19.2549 15.1914C19.5654 15.1914 19.873 15.1445 20.1777 15.0508C20.4824 14.9512 20.7637 14.8105 21.0215 14.6289C21.2793 14.4414 21.502 14.21 21.6895 13.9346C21.8828 13.6592 22.0234 13.3398 22.1113 12.9766L23.8076 13.3193C23.6436 13.8525 23.4121 14.3359 23.1133 14.7695C22.8145 15.2031 22.4658 15.5752 22.0674 15.8857C21.6689 16.1963 21.2295 16.4365 20.749 16.6064C20.2744 16.7764 19.7764 16.8613 19.2549 16.8613C18.4814 16.8613 17.7959 16.7441 17.1982 16.5098C16.6006 16.2754 16.0967 15.9443 15.6865 15.5166C15.2764 15.0889 14.9629 14.5732 14.7461 13.9697C14.5352 13.3662 14.4297 12.6924 14.4297 11.9482C14.4297 11.2158 14.5527 10.5332 14.7988 9.90039C15.0508 9.26172 15.3936 8.70801 15.8271 8.23926C16.2607 7.77051 16.7705 7.40137 17.3564 7.13184C17.9424 6.8623 18.5752 6.72754 19.2549 6.72754C19.8643 6.72754 20.4385 6.84766 20.9775 7.08789C21.5166 7.32227 21.9941 7.65039 22.4102 8.07227C22.8262 8.48828 23.1689 8.98047 23.4385 9.54883C23.708 10.1172 23.8779 10.7324 23.9482 11.3945L16.3369 12.5283C16.3779 12.9443 16.4805 13.3193 16.6445 13.6533C16.8086 13.9814 17.0166 14.2598 17.2686 14.4883C17.5264 14.7168 17.8223 14.8926 18.1562 15.0156C18.4961 15.1328 18.8623 15.1914 19.2549 15.1914ZM21.6807 10.2607L21.6279 10.0938C21.4053 9.51367 21.0977 9.05957 20.7051 8.73145C20.3184 8.40332 19.835 8.23926 19.2549 8.23926C19.0088 8.23926 18.7393 8.2832 18.4463 8.37109C18.1533 8.45312 17.8691 8.59668 17.5938 8.80176C17.3184 9.00684 17.0693 9.28223 16.8467 9.62793C16.6299 9.96777 16.4775 10.3926 16.3896 10.9023L21.6807 10.2607ZM27.543 9.19727C27.7305 8.96289 27.9268 8.72266 28.1318 8.47656C28.3428 8.22461 28.5684 7.99609 28.8086 7.79102C29.0547 7.58594 29.3184 7.41895 29.5996 7.29004C29.8867 7.15527 30.2031 7.08789 30.5488 7.08789C30.7949 7.08789 31.0322 7.12891 31.2607 7.21094C31.4893 7.28711 31.6973 7.40723 31.8848 7.57129C32.0723 7.73535 32.2305 7.94629 32.3594 8.2041C32.4883 8.45605 32.5703 8.75781 32.6055 9.10938C32.7871 8.88086 32.9775 8.64941 33.1768 8.41504C33.3818 8.1748 33.6016 7.95801 33.8359 7.76465C34.0762 7.56543 34.334 7.4043 34.6094 7.28125C34.8848 7.15234 35.1895 7.08789 35.5234 7.08789C35.7812 7.08789 36.0332 7.13184 36.2793 7.21973C36.5254 7.30762 36.7422 7.44531 36.9297 7.63281C37.123 7.81445 37.2812 8.05176 37.4043 8.34473C37.5273 8.63184 37.5947 8.97461 37.6064 9.37305C37.6416 9.80078 37.6738 10.3398 37.7031 10.9902C37.7324 11.5469 37.7559 12.2559 37.7734 13.1172C37.7969 13.9727 37.8086 15.001 37.8086 16.2021L35.9717 16.29C35.9717 15.2236 35.9688 14.3125 35.9629 13.5566C35.957 12.7949 35.9512 12.165 35.9453 11.667C35.9336 11.0869 35.9248 10.6064 35.9189 10.2256C35.9014 9.74512 35.8223 9.3877 35.6816 9.15332C35.5469 8.91895 35.3682 8.80176 35.1455 8.80176C34.999 8.80176 34.8496 8.8457 34.6973 8.93359C34.5508 9.02148 34.4014 9.13574 34.249 9.27637C34.1025 9.41699 33.9561 9.57812 33.8096 9.75977C33.6689 9.94141 33.5342 10.126 33.4053 10.3135C33.2764 10.501 33.1533 10.6826 33.0361 10.8584C32.9189 11.0342 32.8164 11.1895 32.7285 11.3242C32.7402 11.582 32.752 11.8662 32.7637 12.1768C32.7754 12.4873 32.7842 12.8389 32.79 13.2314C32.8018 13.624 32.8076 14.0635 32.8076 14.5498C32.8135 15.0361 32.8164 15.5869 32.8164 16.2021L31.1113 16.29C31.1113 15.2236 31.0996 14.3125 31.0762 13.5566C31.0586 12.7949 31.0381 12.165 31.0146 11.667C30.9912 11.0869 30.9619 10.6064 30.9268 10.2256C30.9092 9.74512 30.8301 9.3877 30.6895 9.15332C30.5547 8.91895 30.376 8.80176 30.1533 8.80176C30.001 8.80176 29.8457 8.85156 29.6875 8.95117C29.5293 9.05078 29.3682 9.17969 29.2041 9.33789C29.0459 9.49609 28.8906 9.67773 28.7383 9.88281C28.5859 10.082 28.4395 10.2842 28.2988 10.4893C28.1582 10.6943 28.0264 10.8906 27.9033 11.0781C27.7803 11.2656 27.6719 11.4297 27.5781 11.5703L27.6572 16.2021L25.9082 16.29L25.6709 6.8418L27.5078 6.63965L27.543 9.19727ZM42.2031 2.8252L42.1504 8.01074C42.4902 7.68262 42.8418 7.43066 43.2051 7.25488C43.5742 7.07324 43.9141 6.94141 44.2246 6.85938C44.5879 6.75977 44.9424 6.7041 45.2881 6.69238C45.6865 6.69238 46.082 6.75098 46.4746 6.86816C46.8672 6.97949 47.2393 7.14062 47.5908 7.35156C47.9424 7.55664 48.2646 7.80566 48.5576 8.09863C48.8564 8.3916 49.1113 8.71973 49.3223 9.08301C49.5391 9.44043 49.7031 9.82715 49.8145 10.2432C49.9258 10.6592 49.9756 11.0957 49.9639 11.5527C49.9463 12.0566 49.8701 12.5312 49.7354 12.9766C49.6006 13.4219 49.4219 13.832 49.1992 14.207C48.9824 14.5762 48.7275 14.9102 48.4346 15.209C48.1416 15.5078 47.8281 15.7598 47.4941 15.9648C47.166 16.1699 46.8232 16.3252 46.4658 16.4307C46.1084 16.542 45.7568 16.5977 45.4111 16.5977C45.0537 16.5859 44.6846 16.5303 44.3037 16.4307C43.9756 16.3486 43.6152 16.2168 43.2227 16.0352C42.8301 15.8535 42.4434 15.5957 42.0625 15.2617V16.4131L40.4277 16.4482L40.2783 2.89551L42.2031 2.8252ZM48.0742 11.7197C48.1035 11.2803 48.0479 10.8584 47.9072 10.4541C47.7725 10.0439 47.5703 9.68359 47.3008 9.37305C47.0371 9.0625 46.7148 8.81641 46.334 8.63477C45.959 8.45312 45.5488 8.36523 45.1035 8.37109C44.7402 8.37695 44.3975 8.43848 44.0752 8.55566C43.7588 8.67285 43.4717 8.83105 43.2139 9.03027C42.9619 9.22949 42.7422 9.46094 42.5547 9.72461C42.3672 9.98828 42.2207 10.2695 42.1152 10.5684L42.0977 12.6689C42.2031 13.0322 42.3525 13.3545 42.5459 13.6357C42.7393 13.9111 42.9619 14.1455 43.2139 14.3389C43.4717 14.5264 43.7471 14.6699 44.04 14.7695C44.3389 14.8633 44.6406 14.9131 44.9453 14.9189C45.373 14.9307 45.7715 14.8545 46.1406 14.6904C46.5156 14.5264 46.8408 14.3008 47.1162 14.0137C47.3975 13.7207 47.6201 13.3779 47.7842 12.9854C47.9541 12.5928 48.0508 12.1709 48.0742 11.7197ZM56.1338 15.1914C56.4443 15.1914 56.752 15.1445 57.0566 15.0508C57.3613 14.9512 57.6426 14.8105 57.9004 14.6289C58.1582 14.4414 58.3809 14.21 58.5684 13.9346C58.7617 13.6592 58.9023 13.3398 58.9902 12.9766L60.6865 13.3193C60.5225 13.8525 60.291 14.3359 59.9922 14.7695C59.6934 15.2031 59.3447 15.5752 58.9463 15.8857C58.5479 16.1963 58.1084 16.4365 57.6279 16.6064C57.1533 16.7764 56.6553 16.8613 56.1338 16.8613C55.3604 16.8613 54.6748 16.7441 54.0771 16.5098C53.4795 16.2754 52.9756 15.9443 52.5654 15.5166C52.1553 15.0889 51.8418 14.5732 51.625 13.9697C51.4141 13.3662 51.3086 12.6924 51.3086 11.9482C51.3086 11.2158 51.4316 10.5332 51.6777 9.90039C51.9297 9.26172 52.2725 8.70801 52.7061 8.23926C53.1396 7.77051 53.6494 7.40137 54.2354 7.13184C54.8213 6.8623 55.4541 6.72754 56.1338 6.72754C56.7432 6.72754 57.3174 6.84766 57.8564 7.08789C58.3955 7.32227 58.873 7.65039 59.2891 8.07227C59.7051 8.48828 60.0479 8.98047 60.3174 9.54883C60.5869 10.1172 60.7568 10.7324 60.8271 11.3945L53.2158 12.5283C53.2568 12.9443 53.3594 13.3193 53.5234 13.6533C53.6875 13.9814 53.8955 14.2598 54.1475 14.4883C54.4053 14.7168 54.7012 14.8926 55.0352 15.0156C55.375 15.1328 55.7412 15.1914 56.1338 15.1914ZM58.5596 10.2607L58.5068 10.0938C58.2842 9.51367 57.9766 9.05957 57.584 8.73145C57.1973 8.40332 56.7139 8.23926 56.1338 8.23926C55.8877 8.23926 55.6182 8.2832 55.3252 8.37109C55.0322 8.45312 54.748 8.59668 54.4727 8.80176C54.1973 9.00684 53.9482 9.28223 53.7256 9.62793C53.5088 9.96777 53.3564 10.3926 53.2686 10.9023L58.5596 10.2607ZM66.0654 16.4307C65.6494 16.4248 65.2803 16.3545 64.958 16.2197C64.6416 16.085 64.3604 15.9121 64.1143 15.7012C63.874 15.4844 63.666 15.2383 63.4902 14.9629C63.3203 14.6875 63.1768 14.4092 63.0596 14.1279C62.7783 13.46 62.6025 12.7041 62.5322 11.8604L62.7695 0.71582H64.6064C64.5771 1.75879 64.5479 2.7168 64.5186 3.58984C64.4951 4.45703 64.4746 5.24805 64.457 5.96289C64.4395 6.67188 64.4219 7.30762 64.4043 7.87012C64.3926 8.43262 64.3809 8.92773 64.3691 9.35547C64.3457 10.3633 64.3281 11.1572 64.3164 11.7373C64.3281 12.2822 64.4072 12.7686 64.5537 13.1963C64.6123 13.3779 64.6885 13.5566 64.7822 13.7324C64.8818 13.9082 64.999 14.0664 65.1338 14.207C65.2744 14.3477 65.4385 14.4619 65.626 14.5498C65.8193 14.6318 66.042 14.6758 66.2939 14.6816L66.0654 16.4307ZM74.4941 10.9639L81.1475 3.39648L83.1162 3.65137L78.9941 8.35352L83.292 15.9297L81.2266 16.2373L77.834 9.66309L74.5469 13.4248L74.6172 16.0352L72.6572 16.0703L72.4551 3.61621L74.3096 3.47559L74.4941 10.9639ZM91.6328 16.5537L91.7559 15.3145C91.041 15.7715 90.3379 16.1025 89.6465 16.3076C88.9609 16.5127 88.3193 16.6152 87.7217 16.6152C87.2998 16.6152 86.8896 16.5596 86.4912 16.4482C86.0986 16.3428 85.75 16.1787 85.4453 15.9561C85.1465 15.7275 84.9033 15.4404 84.7158 15.0947C84.5342 14.7432 84.4434 14.3301 84.4434 13.8555C84.4434 13.3809 84.5137 12.9561 84.6543 12.5811C84.7949 12.2061 84.9883 11.875 85.2344 11.5879C85.4805 11.3008 85.7705 11.0547 86.1045 10.8496C86.4385 10.6445 86.7959 10.4775 87.1768 10.3486C87.5635 10.2197 87.9678 10.126 88.3896 10.0674C88.8115 10.0029 89.2305 9.9707 89.6465 9.9707C90.0332 9.9707 90.3936 9.98535 90.7275 10.0146C91.0615 10.0439 91.3574 10.082 91.6152 10.1289C91.5391 9.83594 91.4453 9.54883 91.334 9.26758C91.2227 8.98047 91.0791 8.72559 90.9033 8.50293C90.7334 8.27441 90.5225 8.08984 90.2705 7.94922C90.0186 7.80859 89.7168 7.73828 89.3652 7.73828C89.1367 7.73828 88.876 7.77344 88.583 7.84375C88.29 7.9082 87.9678 8.02832 87.6162 8.2041C87.2646 8.37988 86.8809 8.62305 86.4648 8.93359C86.0488 9.23828 85.6035 9.63086 85.1289 10.1113L84.0654 8.81934C84.6279 8.29199 85.167 7.86133 85.6826 7.52734C86.1982 7.19336 86.6816 6.93262 87.1328 6.74512C87.5898 6.55176 88.0117 6.41992 88.3984 6.34961C88.791 6.2793 89.1426 6.24414 89.4531 6.24414C89.9922 6.24414 90.4727 6.33789 90.8945 6.52539C91.3164 6.70703 91.6855 6.95898 92.002 7.28125C92.3242 7.59766 92.5938 7.97266 92.8105 8.40625C93.0332 8.83398 93.2148 9.29688 93.3555 9.79492C93.4961 10.2871 93.5957 10.7998 93.6543 11.333C93.7188 11.8662 93.751 12.3965 93.751 12.9238C93.751 13.4863 93.7188 14.0898 93.6543 14.7344C93.5898 15.3789 93.4902 16.082 93.3555 16.8438L91.6328 16.5537ZM91.8789 13.3545C91.8906 13.0615 91.8994 12.7715 91.9053 12.4844C91.9111 12.1973 91.8965 11.8984 91.8613 11.5879C91.5742 11.5 91.2725 11.4297 90.9561 11.377C90.6396 11.3242 90.3232 11.2979 90.0068 11.2979C89.4795 11.2979 88.9668 11.3594 88.4688 11.4824C87.9766 11.6055 87.5518 11.7842 87.1943 12.0186C86.8369 12.2529 86.5674 12.54 86.3857 12.8799C86.21 13.2197 86.1748 13.6064 86.2803 14.04C86.3623 14.3916 86.5205 14.6377 86.7549 14.7783C86.9951 14.9189 87.2822 14.9893 87.6162 14.9893C87.9561 14.9893 88.3223 14.9336 88.7148 14.8223C89.1133 14.7051 89.5059 14.5645 89.8926 14.4004C90.2852 14.2305 90.6543 14.0518 91 13.8643C91.3457 13.6768 91.6387 13.5068 91.8789 13.3545ZM102.646 11.0518C102.64 10.7646 102.613 10.5156 102.566 10.3047C102.525 10.0938 102.47 9.91211 102.399 9.75977C102.335 9.60742 102.259 9.48145 102.171 9.38184C102.089 9.28223 102.004 9.2002 101.916 9.13574C101.711 8.98926 101.479 8.91895 101.222 8.9248C101.058 8.94824 100.882 9.01855 100.694 9.13574C100.513 9.24707 100.325 9.39355 100.132 9.5752C99.9385 9.75098 99.7422 9.95312 99.543 10.1816C99.3496 10.4043 99.1621 10.6357 98.9805 10.876C98.7988 11.1104 98.626 11.3447 98.4619 11.5791C98.2979 11.8135 98.1514 12.0273 98.0225 12.2207C98.0283 12.6602 98.0371 13.0938 98.0488 13.5215C98.0605 13.9434 98.0693 14.3389 98.0752 14.708C98.0869 15.0713 98.0986 15.4023 98.1104 15.7012C98.1279 15.9941 98.1455 16.2314 98.1631 16.4131L96.2734 16.6504C96.2383 15.6426 96.2061 14.7314 96.1768 13.917C96.1475 13.0967 96.1211 12.3643 96.0977 11.7197C96.0742 11.0752 96.0537 10.5068 96.0361 10.0146C96.0244 9.52246 96.0127 9.09766 96.001 8.74023C95.9775 7.90234 95.96 7.28125 95.9482 6.87695L97.9521 6.8418C97.958 7.19922 97.9609 7.56543 97.9609 7.94043C97.9668 8.30957 97.9727 8.64941 97.9785 8.95996C97.9844 9.32324 97.9873 9.67773 97.9873 10.0234C98.1572 9.75391 98.3623 9.45801 98.6025 9.13574C98.8486 8.81348 99.124 8.50879 99.4287 8.22168C99.7393 7.93457 100.076 7.68555 100.439 7.47461C100.809 7.25781 101.201 7.12305 101.617 7.07031C102.086 7.04688 102.514 7.14648 102.9 7.36914C103.064 7.46289 103.226 7.58887 103.384 7.74707C103.548 7.89941 103.697 8.09863 103.832 8.34473C103.973 8.58496 104.09 8.875 104.184 9.21484C104.277 9.54883 104.342 9.94434 104.377 10.4014L102.646 11.0518ZM107.813 7.37793C107.796 8.21582 107.778 8.98633 107.761 9.68945C107.749 10.3867 107.737 11.0225 107.726 11.5967C107.714 12.1709 107.702 12.6865 107.69 13.1436C107.685 13.5947 107.679 13.9902 107.673 14.3301C107.655 15.1387 107.646 15.7744 107.646 16.2373H105.845C105.856 15.6045 105.871 14.8516 105.889 13.9785C105.9 13.2285 105.915 12.3115 105.933 11.2275C105.956 10.1436 105.977 8.88379 105.994 7.44824L107.813 7.37793ZM110.6 16.6504C110.564 15.6426 110.532 14.7314 110.503 13.917C110.474 13.0967 110.447 12.3643 110.424 11.7197C110.4 11.0752 110.38 10.5068 110.362 10.0146C110.351 9.52246 110.339 9.09766 110.327 8.74023C110.304 7.90234 110.286 7.28125 110.274 6.87695L112.278 6.8418L112.313 9.37305C112.507 9.03906 112.727 8.72559 112.973 8.43262C113.219 8.13379 113.485 7.87012 113.772 7.6416C114.06 7.41309 114.364 7.22852 114.687 7.08789C115.015 6.94727 115.357 6.86523 115.715 6.8418C116.16 6.8125 116.547 6.85059 116.875 6.95605C117.209 7.06152 117.493 7.20801 117.728 7.39551C117.962 7.58301 118.155 7.80566 118.308 8.06348C118.46 8.31543 118.58 8.5791 118.668 8.85449C118.756 9.12402 118.817 9.39355 118.853 9.66309C118.894 9.93262 118.92 10.1787 118.932 10.4014C118.967 11.4092 118.976 12.4229 118.958 13.4424C118.94 14.4619 118.92 15.5195 118.896 16.6152L117.095 16.5537C117.142 15.6104 117.183 14.667 117.218 13.7236C117.259 12.7803 117.256 11.8281 117.209 10.8672C117.209 10.7617 117.2 10.627 117.183 10.4629C117.171 10.293 117.139 10.1143 117.086 9.92676C117.039 9.73926 116.972 9.55469 116.884 9.37305C116.796 9.18555 116.682 9.02441 116.541 8.88965C116.4 8.74902 116.228 8.64355 116.022 8.57324C115.823 8.50293 115.589 8.48828 115.319 8.5293C114.856 8.59961 114.385 8.93945 113.904 9.54883C113.43 10.1523 112.917 11.0371 112.366 12.2031C112.39 13.1465 112.407 13.8994 112.419 14.4619C112.437 15.0186 112.451 15.4404 112.463 15.7275C112.475 16.0674 112.483 16.2959 112.489 16.4131L110.6 16.6504ZM130.604 9.4082L129.145 10.2959L129.127 10.2432C128.975 9.94434 128.79 9.67773 128.573 9.44336C128.356 9.20312 128.113 9.00098 127.844 8.83691C127.574 8.66699 127.284 8.53809 126.974 8.4502C126.669 8.3623 126.35 8.31836 126.016 8.31836C125.535 8.31836 125.084 8.40918 124.662 8.59082C124.246 8.77246 123.88 9.02148 123.563 9.33789C123.253 9.6543 123.007 10.0264 122.825 10.4541C122.644 10.876 122.553 11.3271 122.553 11.8076C122.553 12.2822 122.644 12.7305 122.825 13.1523C123.007 13.5742 123.253 13.9434 123.563 14.2598C123.88 14.5762 124.246 14.8252 124.662 15.0068C125.084 15.1885 125.535 15.2793 126.016 15.2793C126.326 15.2793 126.628 15.2383 126.921 15.1562C127.214 15.0742 127.489 14.96 127.747 14.8135C128.011 14.6611 128.251 14.4795 128.468 14.2686C128.685 14.0518 128.869 13.8115 129.021 13.5479L129.057 13.4951L130.586 14.3652L130.568 14.418C130.34 14.7988 130.062 15.1416 129.733 15.4463C129.405 15.751 129.042 16.0117 128.644 16.2285C128.251 16.4512 127.829 16.6211 127.378 16.7383C126.933 16.8555 126.479 16.9141 126.016 16.9141C125.354 16.9141 124.712 16.7852 124.091 16.5273C123.476 16.2695 122.925 15.9121 122.438 15.4551C121.958 14.998 121.571 14.459 121.278 13.8379C120.991 13.2168 120.848 12.54 120.848 11.8076C120.848 11.3682 120.906 10.9375 121.023 10.5156C121.146 10.0879 121.316 9.68359 121.533 9.30273C121.756 8.92188 122.022 8.57031 122.333 8.24805C122.649 7.92578 122.998 7.65039 123.379 7.42188C123.76 7.1875 124.173 7.00586 124.618 6.87695C125.063 6.74219 125.529 6.6748 126.016 6.6748C126.525 6.6748 127.009 6.73633 127.466 6.85938C127.929 6.98242 128.356 7.16113 128.749 7.39551C129.142 7.62402 129.493 7.90527 129.804 8.23926C130.114 8.57324 130.375 8.95117 130.586 9.37305L130.604 9.4082ZM139.234 16.5537L139.357 15.3145C138.643 15.7715 137.939 16.1025 137.248 16.3076C136.562 16.5127 135.921 16.6152 135.323 16.6152C134.901 16.6152 134.491 16.5596 134.093 16.4482C133.7 16.3428 133.352 16.1787 133.047 15.9561C132.748 15.7275 132.505 15.4404 132.317 15.0947C132.136 14.7432 132.045 14.3301 132.045 13.8555C132.045 13.3809 132.115 12.9561 132.256 12.5811C132.396 12.2061 132.59 11.875 132.836 11.5879C133.082 11.3008 133.372 11.0547 133.706 10.8496C134.04 10.6445 134.397 10.4775 134.778 10.3486C135.165 10.2197 135.569 10.126 135.991 10.0674C136.413 10.0029 136.832 9.9707 137.248 9.9707C137.635 9.9707 137.995 9.98535 138.329 10.0146C138.663 10.0439 138.959 10.082 139.217 10.1289C139.141 9.83594 139.047 9.54883 138.936 9.26758C138.824 8.98047 138.681 8.72559 138.505 8.50293C138.335 8.27441 138.124 8.08984 137.872 7.94922C137.62 7.80859 137.318 7.73828 136.967 7.73828C136.738 7.73828 136.478 7.77344 136.185 7.84375C135.892 7.9082 135.569 8.02832 135.218 8.2041C134.866 8.37988 134.482 8.62305 134.066 8.93359C133.65 9.23828 133.205 9.63086 132.73 10.1113L131.667 8.81934C132.229 8.29199 132.769 7.86133 133.284 7.52734C133.8 7.19336 134.283 6.93262 134.734 6.74512C135.191 6.55176 135.613 6.41992 136 6.34961C136.393 6.2793 136.744 6.24414 137.055 6.24414C137.594 6.24414 138.074 6.33789 138.496 6.52539C138.918 6.70703 139.287 6.95898 139.604 7.28125C139.926 7.59766 140.195 7.97266 140.412 8.40625C140.635 8.83398 140.816 9.29688 140.957 9.79492C141.098 10.2871 141.197 10.7998 141.256 11.333C141.32 11.8662 141.353 12.3965 141.353 12.9238C141.353 13.4863 141.32 14.0898 141.256 14.7344C141.191 15.3789 141.092 16.082 140.957 16.8438L139.234 16.5537ZM139.48 13.3545C139.492 13.0615 139.501 12.7715 139.507 12.4844C139.513 12.1973 139.498 11.8984 139.463 11.5879C139.176 11.5 138.874 11.4297 138.558 11.377C138.241 11.3242 137.925 11.2979 137.608 11.2979C137.081 11.2979 136.568 11.3594 136.07 11.4824C135.578 11.6055 135.153 11.7842 134.796 12.0186C134.438 12.2529 134.169 12.54 133.987 12.8799C133.812 13.2197 133.776 13.6064 133.882 14.04C133.964 14.3916 134.122 14.6377 134.356 14.7783C134.597 14.9189 134.884 14.9893 135.218 14.9893C135.558 14.9893 135.924 14.9336 136.316 14.8223C136.715 14.7051 137.107 14.5645 137.494 14.4004C137.887 14.2305 138.256 14.0518 138.602 13.8643C138.947 13.6768 139.24 13.5068 139.48 13.3545Z" fill="white"/>
</g>
<defs>
<filter id="filter0_d_4_806" x="0.0146484" y="0.71582" width="145.338" height="24.1982" filterUnits="userSpaceOnUse" color-interpolation-filters="sRGB">
<feFlood flood-opacity="0" result="BackgroundImageFix"/>
<feColorMatrix in="SourceAlpha" type="matrix" values="0 0 0 0 0 0 0 0 0 0 0 0 0 0 0 0 0 0 127 0" result="hardAlpha"/>
<feOffset dy="4"/>
<feGaussianBlur stdDeviation="2"/>
<feComposite in2="hardAlpha" operator="out"/>
<feColorMatrix type="matrix" values="0 0 0 0 0 0 0 0 0 0 0 0 0 0 0 0 0 0 0.25 0"/>
<feBlend mode="normal" in2="BackgroundImageFix" result="effect1_dropShadow_4_806"/>
<feBlend mode="normal" in="SourceGraphic" in2="effect1_dropShadow_4_806" result="shape"/>
</filter>
</defs>
</svg>
